<svg version="1.1" viewBox="0.0 0.0 960.0 720.0" fill="none" stroke="none" stroke-linecap="square" stroke-miterlimit="10" xmlns:xlink="http://www.w3.org/1999/xlink" xmlns="http://www.w3.org/2000/svg"><clipPath id="p.0"><path d="m0 0l960.0 0l0 720.0l-960.0 0l0 -720.0z" clip-rule="nonzero"/></clipPath><g clip-path="url(#p.0)"><path fill="#000000" fill-opacity="0.0" d="m0 0l960.0 0l0 720.0l-960.0 0z" fill-rule="evenodd"/><path fill="#cfe2f3" d="m303.386 247.1334c-6.2787476 -2.410141 -12.4201355 -0.9813843 -18.424164 4.2862244c-5.996521 5.270523 -11.297272 13.903976 -15.902222 25.900375l-2.6663818 6.946228c-2.796173 7.4193726 -4.421295 14.263275 -4.875366 20.531708c-0.4465332 6.271332 0.30303955 11.530579 2.2487488 15.77771c1.9504089 4.235016 4.9356995 7.1240845 8.955902 8.667267c3.9750366 1.5258484 7.8232117 1.9082642 11.544495 1.1473083c3.7335205 -0.77023315 7.1777344 -2.7671509 10.332733 -5.990692l11.211426 -29.207031l-17.887634 -6.866272l-3.2752686 8.53241l11.416931 4.3824463l-6.8654175 17.885193c-1.9948425 1.618927 -4.074951 2.5148315 -6.2402954 2.6877136c-2.1653442 0.17288208 -4.467621 -0.20883179 -6.90683 -1.1451416c-4.313843 -1.6558838 -6.725403 -5.600769 -7.2347717 -11.834595c-0.5046997 -6.246002 0.95755005 -13.835754 4.38678 -22.769226l2.498413 -6.508667c3.619751 -9.362396 7.4985046 -16.080322 11.63623 -20.15384c4.1499023 -4.082779 8.404358 -5.287567 12.763336 -3.6143494c6.549774 2.5141602 8.411926 9.274261 5.586487 20.280273l6.5045776 2.4968262c2.295166 -8.071869 2.6872253 -14.831299 1.1761475 -20.278229c-1.5064087 -5.4591217 -4.8343506 -9.177002 -9.983856 -11.153641z" fill-rule="evenodd"/><path fill="#cfe2f3" d="m333.11877 318.22546l-4.660919 12.142242c-1.7982483 2.32193 -3.893158 3.96521 -6.284668 4.9298096c-2.39151 0.9646301 -4.5697327 1.0698242 -6.534668 0.31555176c-2.0552673 -0.7889099 -3.3949585 -2.3281555 -4.0190735 -4.617676c-0.624115 -2.2895203 -0.32733154 -5.020447 0.8904114 -8.192749c2.7853699 -7.2561646 8.017548 -9.410431 15.696594 -6.462799zm4.728821 -34.39383c-2.6651 -1.0230103 -5.4197693 -1.1600342 -8.264069 -0.41104126c-2.8367615 0.7518921 -5.4358826 2.2573853 -7.797394 4.5164795c-2.3493347 2.2498474 -4.0908813 4.851532 -5.2246094 7.8050537l6.3013306 2.4187927c0.9937744 -2.5888977 2.5971985 -4.504486 4.810272 -5.7467957c2.2130432 -1.242279 4.437561 -1.4342957 6.673523 -0.5760193c2.5521545 0.9796753 4.0796204 2.7722778 4.582428 5.3778076c0.5074768 2.5933838 0.08236694 5.658539 -1.2753296 9.195496l-1.7845764 4.649048l-6.0980835 -2.3407898c-5.26239 -2.019989 -10.002106 -1.8800354 -14.219147 0.41986084c-4.204834 2.2906494 -7.4899597 6.5171204 -9.855408 12.679382c-1.9455566 5.06839 -2.3972473 9.699188 -1.3550415 13.8923645c1.0543823 4.183899 3.3884277 6.9694214 7.002075 8.356567c4.0427856 1.5518494 8.45874 0.4439087 13.247833 -3.3237915c-0.921875 3.0766907 -1.4260864 5.2677917 -1.5126343 6.5733337l6.572357 2.5228271l0.3359375 -0.8751221c0.37347412 -3.538208 1.6029663 -8.023804 3.6884766 -13.456848l10.455627 -27.238007c2.2051392 -6.0146484 2.763855 -11.183044 1.676178 -15.505249c-1.0830383 -4.334381 -3.7362976 -7.3121643 -7.9597473 -8.93335z" fill-rule="evenodd"/><path fill="#cfe2f3" d="m378.2642 299.34576c-4.562256 -1.7512512 -9.166992 -0.590271 -13.814209 3.4828796l2.3500366 -6.6283875l-5.9286804 -2.2757568l-22.716797 59.17978l6.267456 2.4057922l16.586212 -43.208893c3.6827393 -5.070923 7.579376 -6.8174744 11.689911 -5.239624c5.217224 2.002655 6.174225 7.306671 2.8709717 15.911987l-14.88559 38.778595l6.3013306 2.4188232l15.074554 -39.270874c1.7041016 -3.6968079 3.753296 -6.3686523 6.147583 -8.015533c2.3989563 -1.6590576 4.761566 -2.0420837 7.08786 -1.1491394c2.8231812 1.0837097 4.429718 2.9066467 4.81958 5.4688416c0.39456177 2.5500488 -0.22000122 5.9399414 -1.8436279 10.169678l-14.99057 39.052094l6.267456 2.4057922l15.221527 -39.653748c5.141266 -13.798645 3.6917114 -22.24115 -4.348694 -25.327484c-2.6650696 -1.0230103 -5.312256 -1.0350952 -7.941498 -0.036193848c-2.6217346 1.0017395 -5.088257 2.6906128 -7.3996277 5.0665894c0.58343506 -7.055481 -1.6882935 -11.56723 -6.8151855 -13.535217z" fill-rule="evenodd"/><path fill="#cfe2f3" d="m433.3772 330.03976c2.6199036 1.0056763 4.154236 3.2192688 4.602936 6.6407776c0.45339966 3.4093323 -0.21633911 7.7193604 -2.0092163 12.930023l-0.2939148 0.76571655l-18.361938 -7.04834c2.4640503 -5.2040405 5.123535 -8.959442 7.978424 -11.266235c2.8595886 -2.3189392 5.554138 -2.99292 8.08371 -2.0219421zm3.1912537 -8.313599c-2.9135132 -1.1183777 -6.1215515 -0.8506775 -9.624115 0.8031006c-3.4903564 1.6445007 -6.81839 4.508789 -9.98407 8.592834c-3.1535034 4.074768 -5.8569946 9.047455 -8.110474 14.91803l-0.71383667 1.8596191c-3.3872375 8.824097 -4.5348816 16.471863 -3.4429626 22.943268c1.0965881 6.459259 4.1292725 10.642517 9.098053 12.549805c6.1432495 2.3581238 12.213318 0.3163147 18.210266 -6.125458l-1.9806519 -6.2826233c-2.0756226 1.964447 -4.1612854 3.381134 -6.2569885 4.2501526c-2.0956726 0.86898804 -4.250183 0.8786926 -6.463562 0.029083252c-3.1167908 -1.1964111 -4.9995728 -3.9760742 -5.648407 -8.338989c-0.6365967 -4.372162 0.119659424 -9.492645 2.2687988 -15.36145l24.832672 9.532166l1.6166382 -4.2115173c3.625183 -9.44397 5.0892944 -17.207306 4.392334 -23.29004c-0.69692993 -6.0827026 -3.4281616 -10.038696 -8.193695 -11.867981z" fill-rule="evenodd"/><path fill="#cfe2f3" d="m479.06464 315.82367l-3.3172302 8.641754l15.821075 6.0730286l-27.25177 70.993835l6.4707336 2.4838257l27.25177 -70.993835l15.85495 6.0859985l3.3172607 -8.641785z" fill-rule="evenodd"/><path fill="#cfe2f3" d="m528.51373 357.01984c-3.7717896 -1.447815 -7.7000732 0.07739258 -11.784851 4.575653l2.522766 -6.875885l-6.0980835 -2.3407593l-22.716797 59.17978l6.267456 2.4057922l16.124268 -42.005615c3.6375732 -5.0882874 7.5116577 -6.8434753 11.622192 -5.265625c1.1066895 0.4248047 2.0853271 0.9468994 2.935913 1.5662537l3.611206 -9.407501c-0.4364624 -0.75323486 -1.2644653 -1.3639221 -2.4840698 -1.8320923z" fill-rule="evenodd"/><path fill="#cfe2f3" d="m545.2298 399.64542l-4.6609497 12.142242c-1.7982788 2.3218994 -3.8931274 3.9651794 -6.284668 4.9298096c-2.3915405 0.9645996 -4.569763 1.0697937 -6.534668 0.31555176c-2.0552979 -0.7889404 -3.3949585 -2.3281555 -4.019104 -4.6177063c-0.6240845 -2.2895203 -0.3272705 -5.020447 0.8904419 -8.1927185c2.7853394 -7.256195 8.017578 -9.410461 15.696594 -6.4628296zm4.72876 -34.39386c-2.665039 -1.0230103 -5.419739 -1.1600037 -8.264038 -0.41101074c-2.836731 0.7518616 -5.435913 2.2573547 -7.7974243 4.516449c-2.3493042 2.2498474 -4.0908203 4.851532 -5.2245483 7.8050537l6.3013306 2.4187927c0.9937744 -2.5888672 2.597168 -4.504486 4.8102417 -5.746765c2.2130737 -1.2423096 4.437561 -1.4343262 6.673523 -0.5760498c2.552124 0.9796753 4.079651 2.7722778 4.5824585 5.3778076c0.5074463 2.5934143 0.082336426 5.6585693 -1.2753296 9.195496l-1.7846069 4.649048l-6.0980835 -2.3407593c-5.26239 -2.0200195 -10.002136 -1.8800659 -14.219116 0.41986084c-4.204834 2.290619 -7.48999 6.51709 -9.855469 12.679382c-1.9455566 5.06839 -2.3972168 9.699158 -1.3550415 13.892334c1.0544434 4.1839294 3.3884277 6.969452 7.002136 8.356567c4.0427856 1.5518494 8.458679 0.4439087 13.247803 -3.3237915c-0.921875 3.0766907 -1.4260864 5.2677917 -1.5126343 6.5733337l6.5723877 2.5228271l0.33587646 -0.8751221c0.37347412 -3.538208 1.6030273 -8.023804 3.6885376 -13.456818l10.455566 -27.238007c2.2051392 -6.0146484 2.763855 -11.183075 1.6762085 -15.50528c-1.0830078 -4.3343506 -3.736267 -7.312134 -7.959778 -8.93335z" fill-rule="evenodd"/><path fill="#cfe2f3" d="m588.10535 379.8944c-3.3426514 -1.283081 -6.71698 -1.1559448 -10.123047 0.38146973c-3.3985596 1.5403137 -6.6135864 4.3015137 -9.645142 8.283661c-3.0315552 3.9821472 -5.653076 8.85379 -7.864563 14.61499l-0.6508789 1.6955261c-3.583191 9.334595 -4.9364014 17.259033 -4.0596313 23.773376c0.88897705 6.505066 3.8291626 10.715576 8.820557 12.631561c2.484375 0.9536438 5.1869507 0.9451294 8.107666 -0.025512695c2.9282837 -0.96777344 5.6465454 -2.727356 8.154846 -5.278778c2.5082397 -2.5513916 4.4697266 -5.5009766 5.8843384 -8.848694l-5.92865 -2.2757568c-1.4404297 3.2123413 -3.4161987 5.591614 -5.927307 7.1378784c-2.5111084 1.5462341 -4.8847046 1.8902283 -7.1206665 1.0319214c-3.2296753 -1.2397156 -5.007263 -4.0347595 -5.3326416 -8.385101c-0.32537842 -4.350342 0.8206177 -9.934814 3.4379883 -16.753448l0.7348633 -1.9143066c2.687378 -7.000946 5.6135254 -12.013641 8.778503 -15.038147c3.177124 -3.0337524 6.357971 -3.9394531 9.54248 -2.717041c2.371521 0.91030884 3.8892212 2.9083557 4.5531616 5.99411c0.6762085 3.0765076 0.369812 6.563751 -0.91918945 10.461761l5.92865 2.2757568c2.2547607 -6.413971 2.7823486 -12.131256 1.5827026 -17.151855c-1.1921387 -5.0177307 -3.8435059 -8.315521 -7.9540405 -9.893372z" fill-rule="evenodd"/><path fill="#cfe2f3" d="m618.8993 364.4796l-32.248657 84.01123l6.267456 2.4057922l7.9782104 -20.784027l6.470276 -5.1095886l2.253479 32.304718l7.3515015 2.82193l-2.6957397 -40.569733l23.752563 -19.247253l-7.6226196 -2.9259644l-18.891235 15.088898l-5.852356 5.2212524l19.504578 -50.811462z" fill-rule="evenodd"/><path fill="#cfe2f3" d="m655.48224 415.296c2.619934 1.0056458 4.154236 3.2192383 4.6029663 6.640747c0.45336914 3.4093323 -0.21636963 7.7193604 -2.0092163 12.930023l-0.2939453 0.76571655l-18.361938 -7.04834c2.4640503 -5.20401 5.123535 -8.959442 7.9784546 -11.266235c2.859558 -2.3189392 5.554138 -2.99292 8.083679 -2.0219116zm3.1912842 -8.313629c-2.9135132 -1.1183777 -6.121582 -0.8506775 -9.6241455 0.8031006c-3.4903564 1.6445007 -6.8183594 4.508789 -9.98407 8.592834c-3.1535034 4.0747986 -5.8569946 9.047455 -8.110474 14.91803l-0.7138672 1.8596497c-3.387207 8.824066 -4.534851 16.471832 -3.4429321 22.943237c1.0965576 6.459259 4.1292725 10.642517 9.0980835 12.549835c6.1431885 2.3580933 12.213318 0.31628418 18.210266 -6.125458l-1.9806519 -6.282654c-2.0756836 1.964447 -4.161316 3.381134 -6.257019 4.2501526c-2.095642 0.86898804 -4.250183 0.8786926 -6.463562 0.029083252c-3.1168213 -1.1964111 -4.9995728 -3.9760742 -5.6483765 -8.338989c-0.6366577 -4.372162 0.119628906 -9.492645 2.2687988 -15.36145l24.832642 9.532166l1.6166382 -4.2115173c3.625183 -9.44397 5.0892944 -17.207306 4.392334 -23.29004c-0.6968994 -6.0827026 -3.4281616 -10.038696 -8.193665 -11.867981z" fill-rule="evenodd"/><path fill="#cfe2f3" d="m695.93945 421.2871c-3.7717896 -1.447815 -7.7000732 0.07739258 -11.784851 4.5756226l2.522766 -6.8758545l-6.0980835 -2.3407898l-22.716797 59.17978l6.267456 2.4057922l16.124329 -42.005585c3.6375122 -5.0882874 7.5115967 -6.843506 11.622131 -5.2656555c1.1066895 0.4248047 2.0853271 0.9468994 2.9359741 1.5662537l3.611145 -9.407501c-0.4364624 -0.75323486 -1.2644653 -1.3639221 -2.4840698 -1.8320618z" fill-rule="evenodd"/><path stroke="#000000" stroke-width="1.0" stroke-linejoin="round" stroke-linecap="butt" d="m303.386 247.1334c-6.2787476 -2.410141 -12.4201355 -0.9813843 -18.424164 4.2862244c-5.996521 5.270523 -11.297272 13.903976 -15.902222 25.900375l-2.6663818 6.946228c-2.796173 7.4193726 -4.421295 14.263275 -4.875366 20.531708c-0.4465332 6.271332 0.30303955 11.530579 2.2487488 15.77771c1.9504089 4.235016 4.9356995 7.1240845 8.955902 8.667267c3.9750366 1.5258484 7.8232117 1.9082642 11.544495 1.1473083c3.7335205 -0.77023315 7.1777344 -2.7671509 10.332733 -5.990692l11.211426 -29.207031l-17.887634 -6.866272l-3.2752686 8.53241l11.416931 4.3824463l-6.8654175 17.885193c-1.9948425 1.618927 -4.074951 2.5148315 -6.2402954 2.6877136c-2.1653442 0.17288208 -4.467621 -0.20883179 -6.90683 -1.1451416c-4.313843 -1.6558838 -6.725403 -5.600769 -7.2347717 -11.834595c-0.5046997 -6.246002 0.95755005 -13.835754 4.38678 -22.769226l2.498413 -6.508667c3.619751 -9.362396 7.4985046 -16.080322 11.63623 -20.15384c4.1499023 -4.082779 8.404358 -5.287567 12.763336 -3.6143494c6.549774 2.5141602 8.411926 9.274261 5.586487 20.280273l6.5045776 2.4968262c2.295166 -8.071869 2.6872253 -14.831299 1.1761475 -20.278229c-1.5064087 -5.4591217 -4.8343506 -9.177002 -9.983856 -11.153641z" fill-rule="evenodd"/><path stroke="#000000" stroke-width="1.0" stroke-linejoin="round" stroke-linecap="butt" d="m333.11877 318.22546l-4.660919 12.142242c-1.7982483 2.32193 -3.893158 3.96521 -6.284668 4.9298096c-2.39151 0.9646301 -4.5697327 1.0698242 -6.534668 0.31555176c-2.0552673 -0.7889099 -3.3949585 -2.3281555 -4.0190735 -4.617676c-0.624115 -2.2895203 -0.32733154 -5.020447 0.8904114 -8.192749c2.7853699 -7.2561646 8.017548 -9.410431 15.696594 -6.462799zm4.728821 -34.39383c-2.6651 -1.0230103 -5.4197693 -1.1600342 -8.264069 -0.41104126c-2.8367615 0.7518921 -5.4358826 2.2573853 -7.797394 4.5164795c-2.3493347 2.2498474 -4.0908813 4.851532 -5.2246094 7.8050537l6.3013306 2.4187927c0.9937744 -2.5888977 2.5971985 -4.504486 4.810272 -5.7467957c2.2130432 -1.242279 4.437561 -1.4342957 6.673523 -0.5760193c2.5521545 0.9796753 4.0796204 2.7722778 4.582428 5.3778076c0.5074768 2.5933838 0.08236694 5.658539 -1.2753296 9.195496l-1.7845764 4.649048l-6.0980835 -2.3407898c-5.26239 -2.019989 -10.002106 -1.8800354 -14.219147 0.41986084c-4.204834 2.2906494 -7.4899597 6.5171204 -9.855408 12.679382c-1.9455566 5.06839 -2.3972473 9.699188 -1.3550415 13.8923645c1.0543823 4.183899 3.3884277 6.9694214 7.002075 8.356567c4.0427856 1.5518494 8.45874 0.4439087 13.247833 -3.3237915c-0.921875 3.0766907 -1.4260864 5.2677917 -1.5126343 6.5733337l6.572357 2.5228271l0.3359375 -0.8751221c0.37347412 -3.538208 1.6029663 -8.023804 3.6884766 -13.456848l10.455627 -27.238007c2.2051392 -6.0146484 2.763855 -11.183044 1.676178 -15.505249c-1.0830383 -4.334381 -3.7362976 -7.3121643 -7.9597473 -8.93335z" fill-rule="evenodd"/><path stroke="#000000" stroke-width="1.0" stroke-linejoin="round" stroke-linecap="butt" d="m378.2642 299.34576c-4.562256 -1.7512512 -9.166992 -0.590271 -13.814209 3.4828796l2.3500366 -6.6283875l-5.9286804 -2.2757568l-22.716797 59.17978l6.267456 2.4057922l16.586212 -43.208893c3.6827393 -5.070923 7.579376 -6.8174744 11.689911 -5.239624c5.217224 2.002655 6.174225 7.306671 2.8709717 15.911987l-14.88559 38.778595l6.3013306 2.4188232l15.074554 -39.270874c1.7041016 -3.6968079 3.753296 -6.3686523 6.147583 -8.015533c2.3989563 -1.6590576 4.761566 -2.0420837 7.08786 -1.1491394c2.8231812 1.0837097 4.429718 2.9066467 4.81958 5.4688416c0.39456177 2.5500488 -0.22000122 5.9399414 -1.8436279 10.169678l-14.99057 39.052094l6.267456 2.4057922l15.221527 -39.653748c5.141266 -13.798645 3.6917114 -22.24115 -4.348694 -25.327484c-2.6650696 -1.0230103 -5.312256 -1.0350952 -7.941498 -0.036193848c-2.6217346 1.0017395 -5.088257 2.6906128 -7.3996277 5.0665894c0.58343506 -7.055481 -1.6882935 -11.56723 -6.8151855 -13.535217z" fill-rule="evenodd"/><path stroke="#000000" stroke-width="1.0" stroke-linejoin="round" stroke-linecap="butt" d="m433.3772 330.03976c2.6199036 1.0056763 4.154236 3.2192688 4.602936 6.6407776c0.45339966 3.4093323 -0.21633911 7.7193604 -2.0092163 12.930023l-0.2939148 0.76571655l-18.361938 -7.04834c2.4640503 -5.2040405 5.123535 -8.959442 7.978424 -11.266235c2.8595886 -2.3189392 5.554138 -2.99292 8.08371 -2.0219421zm3.1912537 -8.313599c-2.9135132 -1.1183777 -6.1215515 -0.8506775 -9.624115 0.8031006c-3.4903564 1.6445007 -6.81839 4.508789 -9.98407 8.592834c-3.1535034 4.074768 -5.8569946 9.047455 -8.110474 14.91803l-0.71383667 1.8596191c-3.3872375 8.824097 -4.5348816 16.471863 -3.4429626 22.943268c1.0965881 6.459259 4.1292725 10.642517 9.098053 12.549805c6.1432495 2.3581238 12.213318 0.3163147 18.210266 -6.125458l-1.9806519 -6.2826233c-2.0756226 1.964447 -4.1612854 3.381134 -6.2569885 4.2501526c-2.0956726 0.86898804 -4.250183 0.8786926 -6.463562 0.029083252c-3.1167908 -1.1964111 -4.9995728 -3.9760742 -5.648407 -8.338989c-0.6365967 -4.372162 0.119659424 -9.492645 2.2687988 -15.36145l24.832672 9.532166l1.6166382 -4.2115173c3.625183 -9.44397 5.0892944 -17.207306 4.392334 -23.29004c-0.69692993 -6.0827026 -3.4281616 -10.038696 -8.193695 -11.867981z" fill-rule="evenodd"/><path stroke="#000000" stroke-width="1.0" stroke-linejoin="round" stroke-linecap="butt" d="m479.06464 315.82367l-3.3172302 8.641754l15.821075 6.0730286l-27.25177 70.993835l6.4707336 2.4838257l27.25177 -70.993835l15.85495 6.0859985l3.3172607 -8.641785z" fill-rule="evenodd"/><path stroke="#000000" stroke-width="1.0" stroke-linejoin="round" stroke-linecap="butt" d="m528.51373 357.01984c-3.7717896 -1.447815 -7.7000732 0.07739258 -11.784851 4.575653l2.522766 -6.875885l-6.0980835 -2.3407593l-22.716797 59.17978l6.267456 2.4057922l16.124268 -42.005615c3.6375732 -5.0882874 7.5116577 -6.8434753 11.622192 -5.265625c1.1066895 0.4248047 2.0853271 0.9468994 2.935913 1.5662537l3.611206 -9.407501c-0.4364624 -0.75323486 -1.2644653 -1.3639221 -2.4840698 -1.8320923z" fill-rule="evenodd"/><path stroke="#000000" stroke-width="1.0" stroke-linejoin="round" stroke-linecap="butt" d="m545.2298 399.64542l-4.6609497 12.142242c-1.7982788 2.3218994 -3.8931274 3.9651794 -6.284668 4.9298096c-2.3915405 0.9645996 -4.569763 1.0697937 -6.534668 0.31555176c-2.0552979 -0.7889404 -3.3949585 -2.3281555 -4.019104 -4.6177063c-0.6240845 -2.2895203 -0.3272705 -5.020447 0.8904419 -8.1927185c2.7853394 -7.256195 8.017578 -9.410461 15.696594 -6.4628296zm4.72876 -34.39386c-2.665039 -1.0230103 -5.419739 -1.1600037 -8.264038 -0.41101074c-2.836731 0.7518616 -5.435913 2.2573547 -7.7974243 4.516449c-2.3493042 2.2498474 -4.0908203 4.851532 -5.2245483 7.8050537l6.3013306 2.4187927c0.9937744 -2.5888672 2.597168 -4.504486 4.8102417 -5.746765c2.2130737 -1.2423096 4.437561 -1.4343262 6.673523 -0.5760498c2.552124 0.9796753 4.079651 2.7722778 4.5824585 5.3778076c0.5074463 2.5934143 0.082336426 5.6585693 -1.2753296 9.195496l-1.7846069 4.649048l-6.0980835 -2.3407593c-5.26239 -2.0200195 -10.002136 -1.8800659 -14.219116 0.41986084c-4.204834 2.290619 -7.48999 6.51709 -9.855469 12.679382c-1.9455566 5.06839 -2.3972168 9.699158 -1.3550415 13.892334c1.0544434 4.1839294 3.3884277 6.969452 7.002136 8.356567c4.0427856 1.5518494 8.458679 0.4439087 13.247803 -3.3237915c-0.921875 3.0766907 -1.4260864 5.2677917 -1.5126343 6.5733337l6.5723877 2.5228271l0.33587646 -0.8751221c0.37347412 -3.538208 1.6030273 -8.023804 3.6885376 -13.456818l10.455566 -27.238007c2.2051392 -6.0146484 2.763855 -11.183075 1.6762085 -15.50528c-1.0830078 -4.3343506 -3.736267 -7.312134 -7.959778 -8.93335z" fill-rule="evenodd"/><path stroke="#000000" stroke-width="1.0" stroke-linejoin="round" stroke-linecap="butt" d="m588.10535 379.8944c-3.3426514 -1.283081 -6.71698 -1.1559448 -10.123047 0.38146973c-3.3985596 1.5403137 -6.6135864 4.3015137 -9.645142 8.283661c-3.0315552 3.9821472 -5.653076 8.85379 -7.864563 14.61499l-0.6508789 1.6955261c-3.583191 9.334595 -4.9364014 17.259033 -4.0596313 23.773376c0.88897705 6.505066 3.8291626 10.715576 8.820557 12.631561c2.484375 0.9536438 5.1869507 0.9451294 8.107666 -0.025512695c2.9282837 -0.96777344 5.6465454 -2.727356 8.154846 -5.278778c2.5082397 -2.5513916 4.4697266 -5.5009766 5.8843384 -8.848694l-5.92865 -2.2757568c-1.4404297 3.2123413 -3.4161987 5.591614 -5.927307 7.1378784c-2.5111084 1.5462341 -4.8847046 1.8902283 -7.1206665 1.0319214c-3.2296753 -1.2397156 -5.007263 -4.0347595 -5.3326416 -8.385101c-0.32537842 -4.350342 0.8206177 -9.934814 3.4379883 -16.753448l0.7348633 -1.9143066c2.687378 -7.000946 5.6135254 -12.013641 8.778503 -15.038147c3.177124 -3.0337524 6.357971 -3.9394531 9.54248 -2.717041c2.371521 0.91030884 3.8892212 2.9083557 4.5531616 5.99411c0.6762085 3.0765076 0.369812 6.563751 -0.91918945 10.461761l5.92865 2.2757568c2.2547607 -6.413971 2.7823486 -12.131256 1.5827026 -17.151855c-1.1921387 -5.0177307 -3.8435059 -8.315521 -7.9540405 -9.893372z" fill-rule="evenodd"/><path stroke="#000000" stroke-width="1.0" stroke-linejoin="round" stroke-linecap="butt" d="m618.8993 364.4796l-32.248657 84.01123l6.267456 2.4057922l7.9782104 -20.784027l6.470276 -5.1095886l2.253479 32.304718l7.3515015 2.82193l-2.6957397 -40.569733l23.752563 -19.247253l-7.6226196 -2.9259644l-18.891235 15.088898l-5.852356 5.2212524l19.504578 -50.811462z" fill-rule="evenodd"/><path stroke="#000000" stroke-width="1.0" stroke-linejoin="round" stroke-linecap="butt" d="m655.48224 415.296c2.619934 1.0056458 4.154236 3.2192383 4.6029663 6.640747c0.45336914 3.4093323 -0.21636963 7.7193604 -2.0092163 12.930023l-0.2939453 0.76571655l-18.361938 -7.04834c2.4640503 -5.20401 5.123535 -8.959442 7.9784546 -11.266235c2.859558 -2.3189392 5.554138 -2.99292 8.083679 -2.0219116zm3.1912842 -8.313629c-2.9135132 -1.1183777 -6.121582 -0.8506775 -9.6241455 0.8031006c-3.4903564 1.6445007 -6.8183594 4.508789 -9.98407 8.592834c-3.1535034 4.0747986 -5.8569946 9.047455 -8.110474 14.91803l-0.7138672 1.8596497c-3.387207 8.824066 -4.534851 16.471832 -3.4429321 22.943237c1.0965576 6.459259 4.1292725 10.642517 9.0980835 12.549835c6.1431885 2.3580933 12.213318 0.31628418 18.210266 -6.125458l-1.9806519 -6.282654c-2.0756836 1.964447 -4.161316 3.381134 -6.257019 4.2501526c-2.095642 0.86898804 -4.250183 0.8786926 -6.463562 0.029083252c-3.1168213 -1.1964111 -4.9995728 -3.9760742 -5.6483765 -8.338989c-0.6366577 -4.372162 0.119628906 -9.492645 2.2687988 -15.36145l24.832642 9.532166l1.6166382 -4.2115173c3.625183 -9.44397 5.0892944 -17.207306 4.392334 -23.29004c-0.6968994 -6.0827026 -3.4281616 -10.038696 -8.193665 -11.867981z" fill-rule="evenodd"/><path stroke="#000000" stroke-width="1.0" stroke-linejoin="round" stroke-linecap="butt" d="m695.93945 421.2871c-3.7717896 -1.447815 -7.7000732 0.07739258 -11.784851 4.5756226l2.522766 -6.8758545l-6.0980835 -2.3407898l-22.716797 59.17978l6.267456 2.4057922l16.124329 -42.005585c3.6375122 -5.0882874 7.5115967 -6.843506 11.622131 -5.2656555c1.1066895 0.4248047 2.0853271 0.9468994 2.9359741 1.5662537l3.611145 -9.407501c-0.4364624 -0.75323486 -1.2644653 -1.3639221 -2.4840698 -1.8320618z" fill-rule="evenodd"/></g></svg>