<svg version="1.1" viewBox="0.0 0.0 960.0 720.0" fill="none" stroke="none" stroke-linecap="square" stroke-miterlimit="10" xmlns:xlink="http://www.w3.org/1999/xlink" xmlns="http://www.w3.org/2000/svg"><clipPath id="p.0"><path d="m0 0l960.0 0l0 720.0l-960.0 0l0 -720.0z" clip-rule="nonzero"/></clipPath><g clip-path="url(#p.0)"><path fill="#000000" fill-opacity="0.0" d="m0 0l960.0 0l0 720.0l-960.0 0z" fill-rule="evenodd"/><path fill="#cfe2f3" d="m301.89536 246.56122c-4.9687805 -1.9073029 -9.796295 -1.4036102 -14.482544 1.5110626c-4.674011 2.905426 -8.214783 7.493973 -10.622223 13.76564c-2.1275024 5.5424194 -2.6482239 10.690552 -1.5621338 15.444458c1.0982971 4.744629 3.9398499 9.482086 8.524689 14.212341c3.6514893 3.7862854 5.9136353 7.074127 6.7864075 9.863525c0.8774109 2.7772522 0.56729126 6.116638 -0.9303589 10.018219c-1.4976501 3.9015503 -3.5950928 6.6315613 -6.2922974 8.190063c-2.697235 1.5584717 -5.762329 1.678833 -9.1953125 0.36108398c-3.681427 -1.413147 -6.090851 -3.9347534 -7.2282715 -7.56485c-1.1252136 -3.6393433 -0.7640686 -7.86557 1.0835266 -12.678711l-6.5384827 -2.5098267c-1.7775879 4.6307983 -2.5719604 9.07428 -2.3831482 13.330353c0.1963501 4.258972 1.3590088 8.003326 3.487976 11.233063c2.133606 3.2175903 4.8943176 5.4766235 8.282135 6.7770386c5.2172546 2.002655 10.128418 1.6635742 14.7335205 -1.0173035c4.6098022 -2.6929932 8.153412 -7.26651 10.630829 -13.7204895c1.5536499 -4.0474243 2.3434753 -7.7814026 2.3694763 -11.201965c0.0335083 -3.417694 -0.6798706 -6.6897583 -2.1401672 -9.816254c-1.4481201 -3.1357422 -3.8667603 -6.4208984 -7.255951 -9.855499c-3.3816528 -3.4317017 -5.497711 -6.59375 -6.3482056 -9.486145c-0.83828735 -2.9016724 -0.63461304 -5.975128 0.6111145 -9.220367c1.5536499 -4.047394 3.6625977 -6.8636475 6.3268433 -8.448746c2.6764526 -1.5943451 5.618225 -1.7759857 8.825348 -0.5449219c3.4555664 1.3264313 5.6023865 3.7332916 6.4404907 7.2205963c0.8427429 3.4751282 0.34033203 7.6192627 -1.5072632 12.432404l6.5384827 2.5098572c1.6936035 -4.4120483 2.5240173 -8.758026 2.49115 -13.037903c-0.02532959 -4.2769775 -0.96084595 -7.982971 -2.8065796 -11.11795c-1.8382263 -3.13208 -4.451233 -5.348358 -7.8390503 -6.648773z" fill-rule="evenodd"/><path fill="#cfe2f3" d="m326.2265 264.18436l-5.5007324 14.330048l-6.674011 -2.5618591l-3.0022888 7.8213806l6.6739807 2.5618286l-14.087769 36.700226c-1.9315796 5.0319214 -2.710785 9.1883545 -2.337677 12.469269c0.37313843 3.2809143 1.9599915 5.458893 4.7605896 6.533905c1.5583801 0.59820557 3.3019104 0.8491211 5.230591 0.75271606l3.149292 -8.204224c-1.4327698 -0.047943115 -2.510498 -0.2106018 -3.2332153 -0.4880371c-1.4680786 -0.5635071 -2.2807007 -1.5518188 -2.4379578 -2.9648743c-0.15258789 -1.4252014 0.2260437 -3.3228455 1.1358337 -5.6929626l14.087769 -36.700226l6.843384 2.626892l3.0023193 -7.8213806l-6.843384 -2.6268616l5.5007324 -14.330048z" fill-rule="evenodd"/><path fill="#cfe2f3" d="m352.67947 299.06354c3.1619568 1.2137146 4.920807 4.2037964 5.27652 8.970184c0.36791992 4.7571106 -0.69381714 10.38092 -3.1852417 16.871368c-2.7853699 7.2561646 -5.8898315 12.542114 -9.313416 15.857788c-3.4188843 3.3035278 -6.7206116 4.344116 -9.905151 3.121704c-3.1619873 -1.2137451 -4.9249573 -4.170532 -5.2889404 -8.870361c-0.35647583 -4.6969604 0.7250061 -10.327118 3.2444153 -16.890503c2.8413696 -7.402008 5.9734497 -12.726166 9.396271 -15.972412c3.422821 -3.2462463 6.6813354 -4.2755127 9.775543 -3.0877686zm3.1912842 -8.313629c-3.2297363 -1.2397461 -6.588501 -1.0856628 -10.076294 0.46218872c-3.4803162 1.5507507 -6.816925 4.3699036 -10.009857 8.457428c-3.1854248 4.0904236 -5.890869 9.034485 -8.116364 14.832123l-0.27294922 0.71102905c-3.5271912 9.188721 -4.8219604 17.163513 -3.8843384 23.924316c0.9451599 6.7637024 3.9021606 11.099213 8.870941 13.0065c3.2974854 1.2657471 6.704651 1.1093445 10.221527 -0.46917725c3.5243835 -1.5756531 6.8450317 -4.3869934 9.961975 -8.4339905c3.1290894 -4.056244 5.799408 -8.964966 8.010895 -14.726166l0.27294922 -0.71102905c3.5551758 -9.261658 4.860199 -17.274323 3.915039 -24.038025c-0.9376526 -6.7608337 -3.9021606 -11.099213 -8.893524 -13.015198z" fill-rule="evenodd"/><path fill="#cfe2f3" d="m395.40652 305.92593c-3.771759 -1.447815 -7.7000427 0.07739258 -11.784851 4.575653l2.522766 -6.875885l-6.098053 -2.3407593l-22.716827 59.17978l6.267456 2.4057922l16.124329 -42.005615c3.6375427 -5.0882874 7.5115967 -6.8434753 11.622131 -5.265625c1.1066895 0.4248047 2.0853577 0.9468994 2.9359436 1.5662537l3.6111755 -9.407501c-0.43643188 -0.75323486 -1.2644348 -1.3639221 -2.4840698 -1.8320923z" fill-rule="evenodd"/><path fill="#cfe2f3" d="m414.54095 322.8094c2.6199036 1.0056763 4.154236 3.2192383 4.602936 6.640747c0.45339966 3.4093628 -0.21633911 7.7193604 -2.0092163 12.930023l-0.2939148 0.7657471l-18.361938 -7.04834c2.4640503 -5.2040405 5.123535 -8.959442 7.978424 -11.266235c2.8595886 -2.3189392 5.554138 -2.99292 8.08371 -2.0219421zm3.1912537 -8.313629c-2.9135132 -1.1183472 -6.1215515 -0.850647 -9.624115 0.8031006c-3.4903564 1.6445007 -6.81839 4.508789 -9.98407 8.592834c-3.1535034 4.0747986 -5.8569946 9.047485 -8.110474 14.91806l-0.71383667 1.8596191c-3.3872375 8.824097 -4.5348816 16.471832 -3.4429626 22.943237c1.0965881 6.459259 4.1292725 10.642548 9.098053 12.549835c6.1432495 2.3581238 12.213318 0.31628418 18.210266 -6.125458l-1.9806519 -6.2826233c-2.0756226 1.9644165 -4.1612854 3.381134 -6.2569885 4.250122c-2.0956726 0.86901855 -4.250183 0.8786926 -6.463562 0.029083252c-3.1167908 -1.1963806 -4.9996033 -3.9760437 -5.648407 -8.338959c-0.6365967 -4.3721924 0.119659424 -9.492676 2.2687988 -15.36145l24.832672 9.532135l1.6166382 -4.211487c3.625183 -9.44397 5.0892944 -17.207336 4.392334 -23.29004c-0.69692993 -6.082733 -3.4281616 -10.038727 -8.193695 -11.868011z" fill-rule="evenodd"/><path fill="#cfe2f3" d="m460.2284 308.59326l-3.3172302 8.641785l15.821075 6.072998l-27.25177 70.993866l6.4707336 2.4838257l27.25177 -70.993866l15.85495 6.086029l3.3172607 -8.641785z" fill-rule="evenodd"/><path fill="#cfe2f3" d="m505.16495 357.5959c2.619934 1.0056763 4.154236 3.2192688 4.6029663 6.640747c0.45336914 3.4093628 -0.21633911 7.7193604 -2.0092163 12.930023l-0.2939453 0.7657471l-18.361938 -7.04834c2.4640808 -5.2040405 5.123535 -8.959442 7.9784546 -11.266235c2.859558 -2.3189392 5.554138 -2.99292 8.083679 -2.0219421zm3.1912842 -8.313599c-2.9135132 -1.1183777 -6.1215515 -0.8506775 -9.624115 0.8031006c-3.4903564 1.6445007 -6.81839 4.5087585 -9.9841 8.592834c-3.1535034 4.074768 -5.8569946 9.047455 -8.110474 14.91803l-0.71383667 1.8596191c-3.387207 8.824097 -4.5348816 16.471832 -3.4429626 22.943268c1.0965881 6.4592285 4.1292725 10.642517 9.0980835 12.549805c6.143219 2.3581238 12.213318 0.3163147 18.210266 -6.125458l-1.9806519 -6.2826233c-2.075653 1.9644165 -4.161316 3.381134 -6.2569885 4.250122c-2.0956726 0.86901855 -4.2502136 0.8786926 -6.4635925 0.029083252c-3.1167908 -1.1963806 -4.9995728 -3.9760437 -5.6483765 -8.338959c-0.6366272 -4.3721924 0.119659424 -9.492676 2.2687988 -15.36145l24.832672 9.532135l1.6166382 -4.211487c3.625183 -9.44397 5.0892944 -17.207306 4.392334 -23.29004c-0.69696045 -6.082733 -3.4281616 -10.038727 -8.193695 -11.867981z" fill-rule="evenodd"/><path fill="#cfe2f3" d="m547.621 364.35428c-4.562256 -1.7512512 -9.166992 -0.5903015 -13.814209 3.4828796l2.3500366 -6.6283875l-5.92865 -2.2757568l-22.716827 59.17978l6.2674866 2.4057922l16.586182 -43.208893c3.6827393 -5.0709534 7.5793457 -6.8174744 11.689941 -5.239624c5.217224 2.002655 6.1741943 7.3066406 2.8709717 15.911957l-14.88562 38.778625l6.3013306 2.4187927l15.074585 -39.270874c1.7041016 -3.6968079 3.753296 -6.3686523 6.147583 -8.015533c2.3989258 -1.6590271 4.7615356 -2.0420532 7.0878296 -1.1491089c2.8231812 1.0836792 4.4296875 2.9066467 4.81958 5.4688416c0.39453125 2.5500488 -0.2199707 5.939911 -1.8436279 10.169647l-14.99054 39.052094l6.267456 2.4057922l15.221497 -39.653717c5.1412964 -13.798645 3.6917114 -22.24115 -4.348694 -25.327515c-2.6651 -1.0230103 -5.312256 -1.0350647 -7.9414673 -0.036193848c-2.6217651 1.00177 -5.088318 2.6906433 -7.399658 5.06662c0.58343506 -7.0555115 -1.6882935 -11.567261 -6.8151855 -13.535217z" fill-rule="evenodd"/><path fill="#cfe2f3" d="m603.00165 395.4648c3.0716553 1.1790466 4.74646 4.0392456 5.024475 8.580566c0.2779541 4.541321 -0.8637085 10.148346 -3.425171 16.821136c-2.911316 7.58432 -5.994812 12.961975 -9.250549 16.132935c-3.2435303 3.1616516 -6.3671875 4.165985 -9.371094 3.0129395c-3.8620605 -1.4825134 -5.694641 -5.2817993 -5.4977417 -11.397949l10.854553 -28.277191c3.982666 -4.704773 7.871216 -6.3289185 11.665527 -4.8724365zm5.159546 -7.8718567c-4.539673 -1.7425842 -9.065369 -0.55126953 -13.577026 3.5739136l2.2144775 -6.68042l-5.725403 -2.1977234l-31.450806 81.93283l6.267456 2.4057922l10.938538 -28.496002c0.80255127 5.537567 3.4284668 9.160278 7.8778076 10.868195c4.359009 1.6732178 8.871338 0.24667358 13.536987 -4.279602c4.6656494 -4.5262756 8.727112 -11.292633 12.184326 -20.299042l0.35687256 -0.9298096c3.6671753 -9.553375 5.2459106 -17.502808 4.736267 -23.848328c-0.50219727 -6.3426514 -2.9553223 -10.359253 -7.359497 -12.049805z" fill-rule="evenodd"/><path fill="#cfe2f3" d="m640.0731 372.6073l-32.248657 84.01123l6.267456 2.4057922l32.248657 -84.01123z" fill-rule="evenodd"/><path fill="#cfe2f3" d="m656.79047 442.46857l-4.6609497 12.142242c-1.7982178 2.32193 -3.8931274 3.9651794 -6.284668 4.9298096c-2.3914795 0.9646301 -4.569702 1.0697937 -6.534668 0.31555176c-2.0552368 -0.7889099 -3.3949585 -2.3281555 -4.019043 -4.617676c-0.6241455 -2.2895203 -0.32733154 -5.020447 0.89038086 -8.192749c2.7854004 -7.2561646 8.017578 -9.410431 15.696655 -6.462799zm4.728821 -34.39383c-2.6651 -1.0230103 -5.4198 -1.1600342 -8.264099 -0.41104126c-2.836731 0.7518921 -5.435852 2.2573853 -7.7973633 4.5164795c-2.3493652 2.2498474 -4.0908813 4.851532 -5.2246094 7.805023l6.3013306 2.4188232c0.9937744 -2.5888977 2.597168 -4.504486 4.8102417 -5.7467957c2.2130737 -1.2423096 4.437561 -1.4342957 6.673523 -0.5760193c2.552185 0.9796448 4.079651 2.7722473 4.5824585 5.3778076c0.5074463 2.5933838 0.082336426 5.658539 -1.2753296 9.195465l-1.7846069 4.6490784l-6.0980225 -2.3407898c-5.262451 -2.019989 -10.002136 -1.8800354 -14.219177 0.41986084c-4.204834 2.2906494 -7.48999 6.5171204 -9.855408 12.679382c-1.9455566 5.06839 -2.3972778 9.699158 -1.3550415 13.8923645c1.0543823 4.183899 3.3884277 6.9694214 7.002075 8.356537c4.0427856 1.5518494 8.45874 0.4439392 13.247803 -3.323761c-0.921875 3.0766602 -1.4260864 5.2677917 -1.5125732 6.573303l6.5723267 2.5228577l0.3359375 -0.8751221c0.37347412 -3.538208 1.6029663 -8.023834 3.6884766 -13.456848l10.455627 -27.238007c2.2051392 -6.0146484 2.763855 -11.183075 1.6761475 -15.50528c-1.0830078 -4.3343506 -3.736267 -7.312134 -7.959717 -8.933319z" fill-rule="evenodd"/><path fill="#cfe2f3" d="m692.3136 404.70883l-5.5007324 14.330048l-6.674011 -2.5618286l-3.0023193 7.82135l6.674011 2.5618286l-14.087769 36.700226c-1.9315796 5.0319214 -2.7107544 9.1883545 -2.3376465 12.469269c0.3731079 3.2809143 1.9599609 5.458893 4.760559 6.533905c1.5584106 0.59820557 3.301941 0.8491211 5.230591 0.75271606l3.149292 -8.204224c-1.4327393 -0.047912598 -2.510498 -0.2106018 -3.2332153 -0.4880371c-1.4680786 -0.5635071 -2.2807007 -1.5517883 -2.4379272 -2.9648438c-0.15258789 -1.4252319 0.22601318 -3.322876 1.1358032 -5.692993l14.087769 -36.700195l6.843384 2.6268616l3.0023193 -7.82135l-6.843384 -2.626892l5.5007324 -14.330017z" fill-rule="evenodd"/><path fill="#cfe2f3" d="m718.9021 439.64c2.619934 1.0056763 4.154236 3.2192688 4.6029663 6.6407776c0.45336914 3.4093323 -0.21636963 7.7193604 -2.0092163 12.930023l-0.2939453 0.76571655l-18.361938 -7.04834c2.4640503 -5.2040405 5.123535 -8.959442 7.9784546 -11.266235c2.859558 -2.3189392 5.554138 -2.99292 8.083679 -2.0219421zm3.1912842 -8.313599c-2.9135132 -1.1183777 -6.121582 -0.8506775 -9.6241455 0.8031006c-3.4903564 1.6445007 -6.8183594 4.508789 -9.98407 8.592834c-3.1535034 4.0747986 -5.8569946 9.047455 -8.110474 14.91803l-0.7138672 1.8596191c-3.387207 8.824097 -4.534851 16.471863 -3.4429321 22.943268c1.0965576 6.459259 4.1292725 10.642517 9.0980835 12.549835c6.1431885 2.3580933 12.213318 0.31628418 18.210266 -6.1254883l-1.9806519 -6.2826233c-2.0756836 1.964447 -4.161316 3.381134 -6.257019 4.2501526c-2.095642 0.86898804 -4.250183 0.8786926 -6.463562 0.029083252c-3.1167603 -1.1964111 -4.9995728 -3.9760742 -5.6483765 -8.338989c-0.6365967 -4.372162 0.119628906 -9.492645 2.2687988 -15.36145l24.832642 9.532166l1.6166382 -4.2115173c3.625183 -9.44397 5.0892944 -17.207306 4.392334 -23.29004c-0.6968994 -6.0827026 -3.4281616 -10.038696 -8.193665 -11.867981z" fill-rule="evenodd"/><path stroke="#000000" stroke-width="1.0" stroke-linejoin="round" stroke-linecap="butt" d="m301.89536 246.56122c-4.9687805 -1.9073029 -9.796295 -1.4036102 -14.482544 1.5110626c-4.674011 2.905426 -8.214783 7.493973 -10.622223 13.76564c-2.1275024 5.5424194 -2.6482239 10.690552 -1.5621338 15.444458c1.0982971 4.744629 3.9398499 9.482086 8.524689 14.212341c3.6514893 3.7862854 5.9136353 7.074127 6.7864075 9.863525c0.8774109 2.7772522 0.56729126 6.116638 -0.9303589 10.018219c-1.4976501 3.9015503 -3.5950928 6.6315613 -6.2922974 8.190063c-2.697235 1.5584717 -5.762329 1.678833 -9.1953125 0.36108398c-3.681427 -1.413147 -6.090851 -3.9347534 -7.2282715 -7.56485c-1.1252136 -3.6393433 -0.7640686 -7.86557 1.0835266 -12.678711l-6.5384827 -2.5098267c-1.7775879 4.6307983 -2.5719604 9.07428 -2.3831482 13.330353c0.1963501 4.258972 1.3590088 8.003326 3.487976 11.233063c2.133606 3.2175903 4.8943176 5.4766235 8.282135 6.7770386c5.2172546 2.002655 10.128418 1.6635742 14.7335205 -1.0173035c4.6098022 -2.6929932 8.153412 -7.26651 10.630829 -13.7204895c1.5536499 -4.0474243 2.3434753 -7.7814026 2.3694763 -11.201965c0.0335083 -3.417694 -0.6798706 -6.6897583 -2.1401672 -9.816254c-1.4481201 -3.1357422 -3.8667603 -6.4208984 -7.255951 -9.855499c-3.3816528 -3.4317017 -5.497711 -6.59375 -6.3482056 -9.486145c-0.83828735 -2.9016724 -0.63461304 -5.975128 0.6111145 -9.220367c1.5536499 -4.047394 3.6625977 -6.8636475 6.3268433 -8.448746c2.6764526 -1.5943451 5.618225 -1.7759857 8.825348 -0.5449219c3.4555664 1.3264313 5.6023865 3.7332916 6.4404907 7.2205963c0.8427429 3.4751282 0.34033203 7.6192627 -1.5072632 12.432404l6.5384827 2.5098572c1.6936035 -4.4120483 2.5240173 -8.758026 2.49115 -13.037903c-0.02532959 -4.2769775 -0.96084595 -7.982971 -2.8065796 -11.11795c-1.8382263 -3.13208 -4.451233 -5.348358 -7.8390503 -6.648773z" fill-rule="evenodd"/><path stroke="#000000" stroke-width="1.0" stroke-linejoin="round" stroke-linecap="butt" d="m326.2265 264.18436l-5.5007324 14.330048l-6.674011 -2.5618591l-3.0022888 7.8213806l6.6739807 2.5618286l-14.087769 36.700226c-1.9315796 5.0319214 -2.710785 9.1883545 -2.337677 12.469269c0.37313843 3.2809143 1.9599915 5.458893 4.7605896 6.533905c1.5583801 0.59820557 3.3019104 0.8491211 5.230591 0.75271606l3.149292 -8.204224c-1.4327698 -0.047943115 -2.510498 -0.2106018 -3.2332153 -0.4880371c-1.4680786 -0.5635071 -2.2807007 -1.5518188 -2.4379578 -2.9648743c-0.15258789 -1.4252014 0.2260437 -3.3228455 1.1358337 -5.6929626l14.087769 -36.700226l6.843384 2.626892l3.0023193 -7.8213806l-6.843384 -2.6268616l5.5007324 -14.330048z" fill-rule="evenodd"/><path stroke="#000000" stroke-width="1.0" stroke-linejoin="round" stroke-linecap="butt" d="m352.67947 299.06354c3.1619568 1.2137146 4.920807 4.2037964 5.27652 8.970184c0.36791992 4.7571106 -0.69381714 10.38092 -3.1852417 16.871368c-2.7853699 7.2561646 -5.8898315 12.542114 -9.313416 15.857788c-3.4188843 3.3035278 -6.7206116 4.344116 -9.905151 3.121704c-3.1619873 -1.2137451 -4.9249573 -4.170532 -5.2889404 -8.870361c-0.35647583 -4.6969604 0.7250061 -10.327118 3.2444153 -16.890503c2.8413696 -7.402008 5.9734497 -12.726166 9.396271 -15.972412c3.422821 -3.2462463 6.6813354 -4.2755127 9.775543 -3.0877686zm3.1912842 -8.313629c-3.2297363 -1.2397461 -6.588501 -1.0856628 -10.076294 0.46218872c-3.4803162 1.5507507 -6.816925 4.3699036 -10.009857 8.457428c-3.1854248 4.0904236 -5.890869 9.034485 -8.116364 14.832123l-0.27294922 0.71102905c-3.5271912 9.188721 -4.8219604 17.163513 -3.8843384 23.924316c0.9451599 6.7637024 3.9021606 11.099213 8.870941 13.0065c3.2974854 1.2657471 6.704651 1.1093445 10.221527 -0.46917725c3.5243835 -1.5756531 6.8450317 -4.3869934 9.961975 -8.4339905c3.1290894 -4.056244 5.799408 -8.964966 8.010895 -14.726166l0.27294922 -0.71102905c3.5551758 -9.261658 4.860199 -17.274323 3.915039 -24.038025c-0.9376526 -6.7608337 -3.9021606 -11.099213 -8.893524 -13.015198z" fill-rule="evenodd"/><path stroke="#000000" stroke-width="1.0" stroke-linejoin="round" stroke-linecap="butt" d="m395.40652 305.92593c-3.771759 -1.447815 -7.7000427 0.07739258 -11.784851 4.575653l2.522766 -6.875885l-6.098053 -2.3407593l-22.716827 59.17978l6.267456 2.4057922l16.124329 -42.005615c3.6375427 -5.0882874 7.5115967 -6.8434753 11.622131 -5.265625c1.1066895 0.4248047 2.0853577 0.9468994 2.9359436 1.5662537l3.6111755 -9.407501c-0.43643188 -0.75323486 -1.2644348 -1.3639221 -2.4840698 -1.8320923z" fill-rule="evenodd"/><path stroke="#000000" stroke-width="1.0" stroke-linejoin="round" stroke-linecap="butt" d="m414.54095 322.8094c2.6199036 1.0056763 4.154236 3.2192383 4.602936 6.640747c0.45339966 3.4093628 -0.21633911 7.7193604 -2.0092163 12.930023l-0.2939148 0.7657471l-18.361938 -7.04834c2.4640503 -5.2040405 5.123535 -8.959442 7.978424 -11.266235c2.8595886 -2.3189392 5.554138 -2.99292 8.08371 -2.0219421zm3.1912537 -8.313629c-2.9135132 -1.1183472 -6.1215515 -0.850647 -9.624115 0.8031006c-3.4903564 1.6445007 -6.81839 4.508789 -9.98407 8.592834c-3.1535034 4.0747986 -5.8569946 9.047485 -8.110474 14.91806l-0.71383667 1.8596191c-3.3872375 8.824097 -4.5348816 16.471832 -3.4429626 22.943237c1.0965881 6.459259 4.1292725 10.642548 9.098053 12.549835c6.1432495 2.3581238 12.213318 0.31628418 18.210266 -6.125458l-1.9806519 -6.2826233c-2.0756226 1.9644165 -4.1612854 3.381134 -6.2569885 4.250122c-2.0956726 0.86901855 -4.250183 0.8786926 -6.463562 0.029083252c-3.1167908 -1.1963806 -4.9996033 -3.9760437 -5.648407 -8.338959c-0.6365967 -4.3721924 0.119659424 -9.492676 2.2687988 -15.36145l24.832672 9.532135l1.6166382 -4.211487c3.625183 -9.44397 5.0892944 -17.207336 4.392334 -23.29004c-0.69692993 -6.082733 -3.4281616 -10.038727 -8.193695 -11.868011z" fill-rule="evenodd"/><path stroke="#000000" stroke-width="1.0" stroke-linejoin="round" stroke-linecap="butt" d="m460.2284 308.59326l-3.3172302 8.641785l15.821075 6.072998l-27.25177 70.993866l6.4707336 2.4838257l27.25177 -70.993866l15.85495 6.086029l3.3172607 -8.641785z" fill-rule="evenodd"/><path stroke="#000000" stroke-width="1.0" stroke-linejoin="round" stroke-linecap="butt" d="m505.16495 357.5959c2.619934 1.0056763 4.154236 3.2192688 4.6029663 6.640747c0.45336914 3.4093628 -0.21633911 7.7193604 -2.0092163 12.930023l-0.2939453 0.7657471l-18.361938 -7.04834c2.4640808 -5.2040405 5.123535 -8.959442 7.9784546 -11.266235c2.859558 -2.3189392 5.554138 -2.99292 8.083679 -2.0219421zm3.1912842 -8.313599c-2.9135132 -1.1183777 -6.1215515 -0.8506775 -9.624115 0.8031006c-3.4903564 1.6445007 -6.81839 4.5087585 -9.9841 8.592834c-3.1535034 4.074768 -5.8569946 9.047455 -8.110474 14.91803l-0.71383667 1.8596191c-3.387207 8.824097 -4.5348816 16.471832 -3.4429626 22.943268c1.0965881 6.4592285 4.1292725 10.642517 9.0980835 12.549805c6.143219 2.3581238 12.213318 0.3163147 18.210266 -6.125458l-1.9806519 -6.2826233c-2.075653 1.9644165 -4.161316 3.381134 -6.2569885 4.250122c-2.0956726 0.86901855 -4.2502136 0.8786926 -6.4635925 0.029083252c-3.1167908 -1.1963806 -4.9995728 -3.9760437 -5.6483765 -8.338959c-0.6366272 -4.3721924 0.119659424 -9.492676 2.2687988 -15.36145l24.832672 9.532135l1.6166382 -4.211487c3.625183 -9.44397 5.0892944 -17.207306 4.392334 -23.29004c-0.69696045 -6.082733 -3.4281616 -10.038727 -8.193695 -11.867981z" fill-rule="evenodd"/><path stroke="#000000" stroke-width="1.0" stroke-linejoin="round" stroke-linecap="butt" d="m547.621 364.35428c-4.562256 -1.7512512 -9.166992 -0.5903015 -13.814209 3.4828796l2.3500366 -6.6283875l-5.92865 -2.2757568l-22.716827 59.17978l6.2674866 2.4057922l16.586182 -43.208893c3.6827393 -5.0709534 7.5793457 -6.8174744 11.689941 -5.239624c5.217224 2.002655 6.1741943 7.3066406 2.8709717 15.911957l-14.88562 38.778625l6.3013306 2.4187927l15.074585 -39.270874c1.7041016 -3.6968079 3.753296 -6.3686523 6.147583 -8.015533c2.3989258 -1.6590271 4.7615356 -2.0420532 7.0878296 -1.1491089c2.8231812 1.0836792 4.4296875 2.9066467 4.81958 5.4688416c0.39453125 2.5500488 -0.2199707 5.939911 -1.8436279 10.169647l-14.99054 39.052094l6.267456 2.4057922l15.221497 -39.653717c5.1412964 -13.798645 3.6917114 -22.24115 -4.348694 -25.327515c-2.6651 -1.0230103 -5.312256 -1.0350647 -7.9414673 -0.036193848c-2.6217651 1.00177 -5.088318 2.6906433 -7.399658 5.06662c0.58343506 -7.0555115 -1.6882935 -11.567261 -6.8151855 -13.535217z" fill-rule="evenodd"/><path stroke="#000000" stroke-width="1.0" stroke-linejoin="round" stroke-linecap="butt" d="m603.00165 395.4648c3.0716553 1.1790466 4.74646 4.0392456 5.024475 8.580566c0.2779541 4.541321 -0.8637085 10.148346 -3.425171 16.821136c-2.911316 7.58432 -5.994812 12.961975 -9.250549 16.132935c-3.2435303 3.1616516 -6.3671875 4.165985 -9.371094 3.0129395c-3.8620605 -1.4825134 -5.694641 -5.2817993 -5.4977417 -11.397949l10.854553 -28.277191c3.982666 -4.704773 7.871216 -6.3289185 11.665527 -4.8724365zm5.159546 -7.8718567c-4.539673 -1.7425842 -9.065369 -0.55126953 -13.577026 3.5739136l2.2144775 -6.68042l-5.725403 -2.1977234l-31.450806 81.93283l6.267456 2.4057922l10.938538 -28.496002c0.80255127 5.537567 3.4284668 9.160278 7.8778076 10.868195c4.359009 1.6732178 8.871338 0.24667358 13.536987 -4.279602c4.6656494 -4.5262756 8.727112 -11.292633 12.184326 -20.299042l0.35687256 -0.9298096c3.6671753 -9.553375 5.2459106 -17.502808 4.736267 -23.848328c-0.50219727 -6.3426514 -2.9553223 -10.359253 -7.359497 -12.049805z" fill-rule="evenodd"/><path stroke="#000000" stroke-width="1.0" stroke-linejoin="round" stroke-linecap="butt" d="m640.0731 372.6073l-32.248657 84.01123l6.267456 2.4057922l32.248657 -84.01123z" fill-rule="evenodd"/><path stroke="#000000" stroke-width="1.0" stroke-linejoin="round" stroke-linecap="butt" d="m656.79047 442.46857l-4.6609497 12.142242c-1.7982178 2.32193 -3.8931274 3.9651794 -6.284668 4.9298096c-2.3914795 0.9646301 -4.569702 1.0697937 -6.534668 0.31555176c-2.0552368 -0.7889099 -3.3949585 -2.3281555 -4.019043 -4.617676c-0.6241455 -2.2895203 -0.32733154 -5.020447 0.89038086 -8.192749c2.7854004 -7.2561646 8.017578 -9.410431 15.696655 -6.462799zm4.728821 -34.39383c-2.6651 -1.0230103 -5.4198 -1.1600342 -8.264099 -0.41104126c-2.836731 0.7518921 -5.435852 2.2573853 -7.7973633 4.5164795c-2.3493652 2.2498474 -4.0908813 4.851532 -5.2246094 7.805023l6.3013306 2.4188232c0.9937744 -2.5888977 2.597168 -4.504486 4.8102417 -5.7467957c2.2130737 -1.2423096 4.437561 -1.4342957 6.673523 -0.5760193c2.552185 0.9796448 4.079651 2.7722473 4.5824585 5.3778076c0.5074463 2.5933838 0.082336426 5.658539 -1.2753296 9.195465l-1.7846069 4.6490784l-6.0980225 -2.3407898c-5.262451 -2.019989 -10.002136 -1.8800354 -14.219177 0.41986084c-4.204834 2.2906494 -7.48999 6.5171204 -9.855408 12.679382c-1.9455566 5.06839 -2.3972778 9.699158 -1.3550415 13.8923645c1.0543823 4.183899 3.3884277 6.9694214 7.002075 8.356537c4.0427856 1.5518494 8.45874 0.4439392 13.247803 -3.323761c-0.921875 3.0766602 -1.4260864 5.2677917 -1.5125732 6.573303l6.5723267 2.5228577l0.3359375 -0.8751221c0.37347412 -3.538208 1.6029663 -8.023834 3.6884766 -13.456848l10.455627 -27.238007c2.2051392 -6.0146484 2.763855 -11.183075 1.6761475 -15.50528c-1.0830078 -4.3343506 -3.736267 -7.312134 -7.959717 -8.933319z" fill-rule="evenodd"/><path stroke="#000000" stroke-width="1.0" stroke-linejoin="round" stroke-linecap="butt" d="m692.3136 404.70883l-5.5007324 14.330048l-6.674011 -2.5618286l-3.0023193 7.82135l6.674011 2.5618286l-14.087769 36.700226c-1.9315796 5.0319214 -2.7107544 9.1883545 -2.3376465 12.469269c0.3731079 3.2809143 1.9599609 5.458893 4.760559 6.533905c1.5584106 0.59820557 3.301941 0.8491211 5.230591 0.75271606l3.149292 -8.204224c-1.4327393 -0.047912598 -2.510498 -0.2106018 -3.2332153 -0.4880371c-1.4680786 -0.5635071 -2.2807007 -1.5517883 -2.4379272 -2.9648438c-0.15258789 -1.4252319 0.22601318 -3.322876 1.1358032 -5.692993l14.087769 -36.700195l6.843384 2.6268616l3.0023193 -7.82135l-6.843384 -2.626892l5.5007324 -14.330017z" fill-rule="evenodd"/><path stroke="#000000" stroke-width="1.0" stroke-linejoin="round" stroke-linecap="butt" d="m718.9021 439.64c2.619934 1.0056763 4.154236 3.2192688 4.6029663 6.6407776c0.45336914 3.4093323 -0.21636963 7.7193604 -2.0092163 12.930023l-0.2939453 0.76571655l-18.361938 -7.04834c2.4640503 -5.2040405 5.123535 -8.959442 7.9784546 -11.266235c2.859558 -2.3189392 5.554138 -2.99292 8.083679 -2.0219421zm3.1912842 -8.313599c-2.9135132 -1.1183777 -6.121582 -0.8506775 -9.6241455 0.8031006c-3.4903564 1.6445007 -6.8183594 4.508789 -9.98407 8.592834c-3.1535034 4.0747986 -5.8569946 9.047455 -8.110474 14.91803l-0.7138672 1.8596191c-3.387207 8.824097 -4.534851 16.471863 -3.4429321 22.943268c1.0965576 6.459259 4.1292725 10.642517 9.0980835 12.549835c6.1431885 2.3580933 12.213318 0.31628418 18.210266 -6.1254883l-1.9806519 -6.2826233c-2.0756836 1.964447 -4.161316 3.381134 -6.257019 4.2501526c-2.095642 0.86898804 -4.250183 0.8786926 -6.463562 0.029083252c-3.1167603 -1.1964111 -4.9995728 -3.9760742 -5.6483765 -8.338989c-0.6365967 -4.372162 0.119628906 -9.492645 2.2687988 -15.36145l24.832642 9.532166l1.6166382 -4.2115173c3.625183 -9.44397 5.0892944 -17.207306 4.392334 -23.29004c-0.6968994 -6.0827026 -3.4281616 -10.038696 -8.193665 -11.867981z" fill-rule="evenodd"/></g></svg>